<svg width="22" height="22" viewBox="0 0 22 22" fill="none" xmlns="http://www.w3.org/2000/svg">
<path d="M0 11C0 4.925 4.925 0 11 0C17.075 0 22 4.925 22 11C22 17.075 17.075 22 11 22C4.925 22 0 17.075 0 11ZM11 1.5C8.48044 1.5 6.06408 2.50089 4.28249 4.28249C2.50089 6.06408 1.5 8.48044 1.5 11C1.5 13.5196 2.50089 15.9359 4.28249 17.7175C6.06408 19.4991 8.48044 20.5 11 20.5C13.5196 20.5 15.9359 19.4991 17.7175 17.7175C19.4991 15.9359 20.5 13.5196 20.5 11C20.5 8.48044 19.4991 6.06408 17.7175 4.28249C15.9359 2.50089 13.5196 1.5 11 1.5Z" fill="#0065FF"/>
<path d="M8 14.6672V7.49917C8.00015 7.40948 8.02442 7.32149 8.07026 7.24441C8.11611 7.16733 8.18184 7.104 8.26057 7.06105C8.33931 7.01811 8.42814 6.99713 8.51777 7.00032C8.6074 7.0035 8.69452 7.03074 8.77 7.07917L14.346 10.6622C14.4166 10.7074 14.4747 10.7697 14.5149 10.8432C14.5552 10.9168 14.5763 10.9993 14.5763 11.0832C14.5763 11.167 14.5552 11.2495 14.5149 11.3231C14.4747 11.3967 14.4166 11.4589 14.346 11.5042L8.77 15.0882C8.69452 15.1366 8.6074 15.1638 8.51777 15.167C8.42814 15.1702 8.33931 15.1492 8.26057 15.1063C8.18184 15.0633 8.11611 15 8.07026 14.9229C8.02442 14.8458 8.00015 14.7579 8 14.6682V14.6672Z" fill="#0065FF"/>
</svg>
