<svg width="7" height="9" viewBox="0 0 7 9" fill="none" xmlns="http://www.w3.org/2000/svg">
<path d="M0 7.66717V0.499168C0.000149246 0.409484 0.0244173 0.321491 0.070262 0.24441C0.116107 0.167329 0.18184 0.103997 0.260573 0.0610521C0.339307 0.0181067 0.428142 -0.00287132 0.517769 0.000315915C0.607396 0.00350315 0.694517 0.0307381 0.77 0.0791676L6.346 3.66217C6.4166 3.70741 6.4747 3.76967 6.51493 3.84324C6.55517 3.91681 6.57626 3.99932 6.57626 4.08317C6.57626 4.16702 6.55517 4.24953 6.51493 4.3231C6.4747 4.39666 6.4166 4.45893 6.346 4.50417L0.77 8.08817C0.694517 8.1366 0.607396 8.16383 0.517769 8.16702C0.428142 8.17021 0.339307 8.14923 0.260573 8.10628C0.18184 8.06334 0.116107 8.00001 0.070262 7.92293C0.0244173 7.84584 0.000149246 7.75785 0 7.66817V7.66717Z" fill="#0065FF"/>
</svg>
